<?xml version="1.0" encoding="UTF-8"?>
<svg width="318px" height="283px" viewBox="0 0 318 283" version="1.1" xmlns="http://www.w3.org/2000/svg" xmlns:xlink="http://www.w3.org/1999/xlink">
    <!-- Generator: Sketch 49.2 (51160) - http://www.bohemiancoding.com/sketch -->
    <title>sharehouse-monolight</title>
    <desc>Created with Sketch.</desc>
    <defs></defs>
    <g id="sharehouse-monolight" stroke="none" stroke-width="1" fill="none" fill-rule="evenodd">
        <path d="M159.5,0 L318,90.5 L279.5,90.5 L279.5,282.5 L39,282.5 L39,90.5 L0,90.5 L159.5,0 Z M146,232.6 C147.4,231.2 148.2,229.2 148.2,227.4 L148.2,182.6 C148.2,180.8 147.6,179.2 146,177.4 L134.8,166.2 C133.6,165 131.8,164.2 129.6,164.2 L89,164.2 C88.4,164.2 87.8,164 87.4,163.6 L84,160.2 C83.6,159.8 83.4,159.2 83.4,158.8 L83.4,135.6 C83.4,135.2 83.4,134.6 84,134.2 L87.4,131 C88,130.6 88.4,130.4 89,130.4 L124.2,130.4 L124.2,145.8 C124.2,147.4 125.4,148.6 127,148.6 L145.4,148.6 C147,148.6 148.2,147.4 148.2,145.8 L148.2,124.8 C148.2,123.2 148.2,122 146,119.6 L134.8,108.4 C133.4,107 131.2,106.4 129.6,106.4 L78,106.4 C74.8,106.4 74,107.2 72.8,108.4 L61.6,119.6 C59.8,121.4 59.4,123.4 59.4,124.8 L59.4,169.8 C59.4,171.4 59.8,173.2 61.4,174.8 L72.8,186 C74.6,187.8 76.6,188.2 77.4,188.2 L119,188.2 C119.6,188.2 120,188.4 120.4,188.8 L123.6,192 C124,192.4 124.2,193 124.2,193.4 L124.2,216.8 C124.2,217.2 124.2,217.8 123.6,218.2 L120.2,221.4 C119.8,221.8 119.6,222 119.2,222 L83.4,222 L83.4,207.6 C83.4,206.2 82.2,204.8 80.6,204.8 L62.2,204.8 C60.6,204.8 59.4,206.2 59.4,207.6 L59.4,228 C59.4,229.4 59.6,230.8 61.4,232.6 L72.8,243.8 C74.4,245.4 75,246 78,246 L129.6,246 C131.2,246 133.2,245.6 134.8,244 L146,232.6 Z M254.4,246 C256,246 257.2,244.8 257.2,243.2 L257.2,109.2 C257.2,107.6 256,106.4 254.4,106.4 L236,106.4 C234.4,106.4 233.2,107.6 233.2,109.2 L233.2,164.2 L192.4,164.2 L192.4,109.2 C192.4,107.6 191.2,106.4 189.6,106.4 L171.2,106.4 C169.6,106.4 168.4,107.6 168.4,109.2 L168.4,243.2 C168.4,244.8 169.6,246 171.2,246 L189.6,246 C191.2,246 192.4,244.8 192.4,243.2 L192.4,188.2 L233.2,188.2 L233.2,243.2 C233.2,244.8 234.4,246 236,246 L254.4,246 Z" id="Combined-Shape" fill="#212121"></path>
    </g>
</svg>